<svg viewBox="0 0 32 26">
	<path d="M16,26C8.8,26,3,20.2,3,13C3,5.8,8.8,0,16,0s13,5.8,13,13C29,20.2,23.2,26,16,26z M16.3,11.1c-5.7,1.7-11.2,1.6-11.4,1.6
		c0,0.1,0,0.2,0,0.4c0,2.8,1.1,5.5,2.8,7.4c3-5.4,9-7.3,9-7.3c0.2-0.1,0.3-0.1,0.4-0.1C16.9,12.3,16.6,11.7,16.3,11.1z M11.3,3
		c-3.1,1.5-5.4,4.3-6.1,7.8c0.3,0,4.9,0.1,10.3-1.4C13.5,5.9,11.4,3.2,11.3,3z M18,14.8C17.9,14.8,17.9,14.8,18,14.8
		c-0.1,0-6.7,2.3-8.8,7c-0.1-0.1-0.3-0.2-0.3-0.2c1.9,1.6,4.4,2.5,7.1,2.5c1.5,0,3-0.3,4.3-0.9C20.2,22.2,19.5,18.9,18,14.8z
		 M13.3,2.2C13.3,2.2,13.3,2.2,13.3,2.2C13.3,2.2,13.3,2.2,13.3,2.2z M16,1.9c-0.9,0-1.8,0.1-2.6,0.3c0.2,0.2,2.3,3,4.2,6.5
		c4.2-1.6,5.8-4,5.8-4C21.4,2.9,18.8,1.9,16,1.9z M24.6,5.9c0,0-1.8,2.6-6.2,4.4c0.3,0.5,0.5,1.1,0.7,1.6c0.1,0.2,0.2,0.4,0.2,0.6
		c3.8-0.5,7.6,0.3,7.7,0.4C27.1,10.3,26.1,7.8,24.6,5.9z M20,14.3c1.5,4,2,7.3,2.2,7.9c2.5-1.7,4.2-4.4,4.8-7.4
		C26.7,14.7,23.6,13.7,20,14.3z" />
</svg>