<svg viewBox="0 0 32 26">
	<path d="M30.2,20.6c-2.4,4.9-9.1,5.4-13.9,5.4c-4.9,0-12-0.4-14.5-5.4c-0.9-1.9-1.1-4.1-1.1-6.1c0-2.7,0.7-5.2,2.5-7.3
		C2.8,6.1,2.7,5.1,2.7,4c0-1.4,0.3-2.8,0.9-4c2.9,0,4.8,1.3,7,3c1.9-0.4,3.8-0.6,5.7-0.6c1.7,0,3.5,0.2,5.2,0.6c2.2-1.7,4.1-3,6.9-3
		c0.6,1.3,0.9,2.6,0.9,4c0,1.1-0.2,2.1-0.5,3.1c1.8,2.1,2.5,4.7,2.5,7.3C31.4,16.5,31.2,18.7,30.2,20.6z M22.5,12.4
		c-1.2,0-2.4,0.2-3.6,0.4C17.9,12.9,17,13,16,13s-1.9-0.1-2.9-0.2c-1.2-0.2-2.4-0.4-3.6-0.4c-3,0-4.7,2.5-4.7,5.3
		c0,5.7,5.2,6.5,9.7,6.5h3.1c4.5,0,9.7-0.9,9.7-6.5C27.2,14.9,25.5,12.4,22.5,12.4z M10.1,21.3c-1.7,0-2.4-2.2-2.4-3.5
		c0-1.3,0.7-3.5,2.4-3.5s2.4,2.2,2.4,3.5C12.5,19.1,11.8,21.3,10.1,21.3z M21.9,21.3c-1.7,0-2.4-2.2-2.4-3.5c0-1.3,0.7-3.5,2.4-3.5
		c1.7,0,2.4,2.2,2.4,3.5C24.3,19.1,23.6,21.3,21.9,21.3z" />
</svg>
