<svg version="1.1" class="instagram_icon" xmlns="http://www.w3.org/2000/svg" xmlns:xlink="http://www.w3.org/1999/xlink" x="0px" y="0px"
	 viewBox="0 0 32 32" enable-background="new 0 0 32 32" xml:space="preserve">
<path fill="black" d="M16,19.2c1.8,0,3.2-1.4,3.2-3.2c0-0.7-0.2-1.3-0.6-1.9c-0.6-0.8-1.5-1.3-2.6-1.3c-1.1,0-2,0.5-2.6,1.3
	c-0.4,0.5-0.6,1.2-0.6,1.9C12.8,17.8,14.2,19.2,16,19.2z"/>
<polygon fill="black" points="23,12.1 23,9.4 23,9 22.6,9 19.9,9 19.9,12.1 "/>
<path fill="black" d="M16,0C7.2,0,0,7.2,0,16c0,8.8,7.2,16,16,16c8.8,0,16-7.2,16-16C32,7.2,24.8,0,16,0z M25.1,14.1v7.5c0,1.9-1.6,3.5-3.5,3.5
	H10.4c-1.9,0-3.5-1.6-3.5-3.5v-7.5v-3.7c0-1.9,1.6-3.5,3.5-3.5h11.2c1.9,0,3.5,1.6,3.5,3.5V14.1z"/>
<path fill="black" d="M21,16c0,2.7-2.2,5-5,5s-5-2.2-5-5c0-0.7,0.1-1.3,0.4-1.9H8.7v7.5c0,1,0.8,1.7,1.7,1.7h11.2c1,0,1.7-0.8,1.7-1.7v-7.5h-2.7
	C20.8,14.7,21,15.3,21,16z"/>
</svg>