<?xml version="1.0" encoding="utf-8"?>
<!-- Generator: Adobe Illustrator 19.2.0, SVG Export Plug-In . SVG Version: 6.00 Build 0)  -->
<svg version="1.1" id="Layer_1" xmlns="http://www.w3.org/2000/svg" xmlns:xlink="http://www.w3.org/1999/xlink" x="0px" y="0px"
	 viewBox="0 0 36 36" style="enable-background:new 0 0 36 36;" xml:space="preserve">
<path d="M34,0c-0.6,0-1.1,0.2-1.4,0.6c-2.8,2.8-29.2,29.2-32,32C0.2,32.9,0,33.4,0,34c0,1.1,0.9,2,2,2c0.6,0,1.1-0.2,1.4-0.6
	c2.8-2.8,29.2-29.2,32-32C35.8,3.1,36,2.6,36,2C36,0.9,35.1,0,34,0z"/>
<path d="M35.4,32.6c-2.8-2.8-29.2-29.2-32-32C3.1,0.2,2.6,0,2,0C0.9,0,0,0.9,0,2c0,0.6,0.2,1.1,0.6,1.4c2.8,2.8,29.2,29.2,32,32
	c0.4,0.4,0.9,0.6,1.4,0.6c1.1,0,2-0.9,2-2C36,33.4,35.8,32.9,35.4,32.6z"/>
</svg>
