<svg viewBox="0 0 32 26">
	<path d="M30,21.5c0,1.4-1.1,2.5-2.5,2.5h-23C3.1,24,2,22.9,2,21.5v-17C2,3.1,3.1,2,4.5,2h23C28.9,2,30,3.1,30,4.5V21.5z M27.5,4
		h-23C4.2,4,4,4.2,4,4.5c0,1.8,0.9,3.3,2.3,4.4c2.1,1.6,4.2,3.3,6.3,5c0.8,0.7,2.3,2.1,3.4,2.1h0h0c1.1,0,2.6-1.4,3.4-2.1
		c2.1-1.7,4.2-3.3,6.3-5c1-0.8,2.3-2.5,2.3-3.9C28,4.7,28.1,4,27.5,4z M28,9.5c-0.3,0.4-0.7,0.7-1.1,1c-2.2,1.7-4.5,3.5-6.7,5.3
		c-1.2,1-2.6,2.2-4.2,2.2h0h0c-1.6,0-3.1-1.2-4.2-2.2c-2.2-1.8-4.4-3.6-6.7-5.3c-0.4-0.3-0.8-0.7-1.1-1v12C4,21.8,4.2,22,4.5,22h23
		c0.3,0,0.5-0.2,0.5-0.5V9.5z" />
</svg>