<svg viewBox="0 0 32 26">
	<path d="M31,23.5c0,1.4-1.1,2.5-2.5,2.5h-25C2.1,26,1,24.9,1,23.5v-21C1,1.1,2.1,0,3.5,0h25C29.9,0,31,1.1,31,2.5V23.5z M7,3
		c0-0.5-0.5-1-1-1H4C3.5,2,3,2.5,3,3v2c0,0.5,0.5,1,1,1h2c0.5,0,1-0.5,1-1V3z M7,9c0-0.5-0.5-1-1-1H4C3.5,8,3,8.5,3,9v2
		c0,0.5,0.5,1,1,1h2c0.5,0,1-0.5,1-1V9z M7,15c0-0.5-0.5-1-1-1H4c-0.5,0-1,0.5-1,1v2c0,0.5,0.5,1,1,1h2c0.5,0,1-0.5,1-1V15z M7,21
		c0-0.5-0.5-1-1-1H4c-0.5,0-1,0.5-1,1v2c0,0.5,0.5,1,1,1h2c0.5,0,1-0.5,1-1V21z M23,3c0-0.5-0.5-1-1-1H10C9.5,2,9,2.5,9,3v8
		c0,0.5,0.5,1,1,1h12c0.5,0,1-0.5,1-1V3z M23,15c0-0.5-0.5-1-1-1H10c-0.5,0-1,0.5-1,1v8c0,0.5,0.5,1,1,1h12c0.5,0,1-0.5,1-1V15z
		 M29,3c0-0.5-0.5-1-1-1h-2c-0.5,0-1,0.5-1,1v2c0,0.5,0.5,1,1,1h2c0.5,0,1-0.5,1-1V3z M29,9c0-0.5-0.5-1-1-1h-2c-0.5,0-1,0.5-1,1v2
		c0,0.5,0.5,1,1,1h2c0.5,0,1-0.5,1-1V9z M29,15c0-0.5-0.5-1-1-1h-2c-0.5,0-1,0.5-1,1v2c0,0.5,0.5,1,1,1h2c0.5,0,1-0.5,1-1V15z
		 M29,21c0-0.5-0.5-1-1-1h-2c-0.5,0-1,0.5-1,1v2c0,0.5,0.5,1,1,1h2c0.5,0,1-0.5,1-1V21z"/>
</svg>