<?xml version="1.0" encoding="utf-8"?>
<!-- Generator: Adobe Illustrator 19.2.0, SVG Export Plug-In . SVG Version: 6.00 Build 0)  -->
<svg version="1.1" id="Layer_1" xmlns="http://www.w3.org/2000/svg" xmlns:xlink="http://www.w3.org/1999/xlink" x="0px" y="0px"
	 viewBox="0 0 32 26" style="enable-background:new 0 0 32 26;" xml:space="preserve">
<path d="M28.9,8.2c-2.8,1.9-5.6,3.9-8.4,5.8c-1.2,0.8-3.1,2.4-4.6,2.4h0h0c-1.4,0-3.4-1.6-4.6-2.4C8.6,12,5.8,10.1,3.1,8.2
	C1.8,7.3,0,5.3,0,3.7c0-1.8,0.9-3.3,2.9-3.3h26.3c1.6,0,2.9,1.3,2.9,2.9C32,5.3,30.5,7.1,28.9,8.2z M32,22.7c0,1.6-1.3,2.9-2.9,2.9
	H2.9c-1.6,0-2.9-1.3-2.9-2.9V8.5c0.5,0.6,1.1,1.1,1.8,1.6c3,2,6,4,8.9,6.2c1.5,1.1,3.4,2.5,5.3,2.5h0h0c1.9,0,3.8-1.4,5.3-2.5
	c2.9-2.1,5.9-4.1,8.9-6.2c0.6-0.4,1.2-1,1.8-1.6V22.7z"/>
</svg>
