<svg viewBox="0 0 32 26">
	<path d="M30.2,16.4l-4.6,5.7c-0.9,1.1-2.6,1.9-4,1.9h-17c-1.9,0-3.5-1.6-3.5-3.5v-15C1.1,3.6,2.7,2,4.6,2h5c1.9,0,3.5,1.6,3.5,3.5
		V6h8.5c1.9,0,3.5,1.6,3.5,3.5V12h3c1.1,0,2.1,0.5,2.6,1.5c0.2,0.3,0.2,0.7,0.2,1.1C30.9,15.2,30.6,15.9,30.2,16.4z M23.1,12V9.5
		c0-0.8-0.7-1.5-1.5-1.5h-9c-0.8,0-1.5-0.7-1.5-1.5v-1c0-0.8-0.7-1.5-1.5-1.5h-5C3.8,4,3.1,4.7,3.1,5.5v13.3l4-4.9
		c0.9-1.1,2.6-1.9,4-1.9H23.1z M28.1,14h-17c-0.8,0-1.9,0.5-2.5,1.2L4,20.8c-0.1,0.2-0.3,0.4-0.3,0.6c0,0.4,0.5,0.5,0.8,0.5h17
		c0.8,0,1.9-0.5,2.5-1.2l4.6-5.7c0.1-0.2,0.3-0.4,0.3-0.6C28.9,14.1,28.4,14,28.1,14z"/>
</svg>