<?xml version="1.0" encoding="utf-8"?>
<!-- Generator: Adobe Illustrator 19.2.0, SVG Export Plug-In . SVG Version: 6.00 Build 0)  -->
<svg version="1.1" id="Layer_1" xmlns="http://www.w3.org/2000/svg" xmlns:xlink="http://www.w3.org/1999/xlink" x="0px" y="0px"
	 viewBox="0 0 32 26" style="enable-background:new 0 0 32 26;" xml:space="preserve">
<path d="M26.4,23.6c-0.3,1.1-1.2,2-2.3,2.1C21.4,26,18.7,26,16,26s-5.4,0-8.1-0.3c-1.1-0.1-2.1-1-2.3-2.1c-0.4-1.6-0.4-3.4-0.4-5.1
	c0-1.7,0-3.5,0.4-5.1c0.3-1.1,1.2-2,2.3-2.1c2.7-0.3,5.4-0.3,8-0.3s5.4,0,8.1,0.3c1.1,0.1,2.1,1,2.3,2.1c0.4,1.6,0.4,3.4,0.4,5.1
	C26.8,20.2,26.7,22,26.4,23.6z M11.4,14.9v-1.4H6.9v1.4h1.5v8.3h1.5v-8.3H11.4z M13.8,0L12,5.8v3.9h-1.5V5.8
	c-0.1-0.7-0.4-1.7-0.9-3.1C9.3,1.8,9,0.9,8.7,0h1.5l1,3.8l1-3.8H13.8z M15.3,23.2V16H14v5.5c-0.3,0.4-0.6,0.6-0.8,0.6
	c-0.2,0-0.3-0.1-0.3-0.3c0,0,0-0.2,0-0.5V16h-1.3v5.7c0,0.5,0,0.8,0.1,1.1c0.1,0.4,0.4,0.5,0.8,0.5c0.5,0,1-0.3,1.5-0.9v0.8H15.3z
	 M17.6,7.4c0,0.8-0.1,1.3-0.4,1.7c-0.4,0.5-0.9,0.7-1.5,0.7c-0.7,0-1.2-0.2-1.5-0.7c-0.3-0.4-0.4-0.9-0.4-1.7V4.8
	c0-0.8,0.1-1.3,0.4-1.7c0.4-0.5,0.9-0.7,1.5-0.7c0.7,0,1.2,0.2,1.5,0.7c0.3,0.4,0.4,0.9,0.4,1.7V7.4z M16.3,4.6c0-0.7-0.2-1-0.6-1
	c-0.4,0-0.6,0.3-0.6,1v3c0,0.7,0.2,1,0.6,1c0.4,0,0.6-0.3,0.6-1V4.6z M20.2,18.2c0-0.7,0-1.1-0.1-1.4c-0.2-0.5-0.5-0.8-1-0.8
	c-0.5,0-0.9,0.3-1.3,0.8v-3.1h-1.3v9.6h1.3v-0.7c0.4,0.5,0.9,0.8,1.3,0.8c0.5,0,0.9-0.3,1-0.8c0.1-0.3,0.1-0.8,0.1-1.5V18.2z
	 M18.9,21.1c0,0.7-0.2,1-0.6,1c-0.2,0-0.4-0.1-0.7-0.3v-4.4c0.2-0.2,0.4-0.3,0.7-0.3c0.4,0,0.6,0.3,0.6,1V21.1z M22.5,9.7h-1.3V8.9
	c-0.5,0.6-1,0.9-1.5,0.9c-0.4,0-0.7-0.2-0.9-0.5c-0.1-0.2-0.1-0.6-0.1-1.1V2.5H20v5.3c0,0.3,0,0.5,0,0.5c0,0.2,0.1,0.3,0.3,0.3
	c0.3,0,0.5-0.2,0.8-0.6V2.5h1.3V9.7z M25.1,20.7h-1.3c0,0.5,0,0.8,0,0.9c-0.1,0.3-0.3,0.5-0.6,0.5c-0.5,0-0.7-0.3-0.7-1v-1.3h2.6
	v-1.5c0-0.8-0.1-1.3-0.4-1.7c-0.4-0.5-0.9-0.7-1.5-0.7c-0.7,0-1.2,0.2-1.6,0.7c-0.3,0.4-0.4,0.9-0.4,1.7v2.5c0,0.8,0.1,1.3,0.4,1.7
	c0.4,0.5,0.9,0.7,1.6,0.7c0.7,0,1.2-0.3,1.6-0.8c0.2-0.2,0.3-0.5,0.3-0.8c0-0.1,0-0.4,0-0.8V20.7z M23.8,18.7h-1.3v-0.7
	c0-0.7,0.2-1,0.7-1s0.7,0.3,0.7,1V18.7z"/>
</svg>
