<svg x="0px" y="0px" viewBox="0 0 570 510">
	<path d="M335.9,254.3c0,28.3-22.8,51.3-50.9,51.3s-50.9-23-50.9-51.3s22.8-51.3,50.9-51.3S335.9,226,335.9,254.3z" />
	<path d="M285,371.9c-71.5,0-134-8.5-180.8-24.6c-30.4-10.5-56.1-24.3-74.4-40.2C10.3,290.3,0,272,0,254.3
		c0-33.9,37-67.1,98.9-88.9c50.8-17.8,116.9-27.6,186.1-27.6c68,0,133.2,9.6,183.7,27.1c29.5,10.2,54.4,23.5,72,38.3
		c19.2,16.1,29.3,33.8,29.3,51.1c0,35.2-41.3,70.9-107.9,93.1C415,363.2,352.1,371.9,285,371.9z M285,162.4
		c-65.6,0-130.5,9.6-178.1,26.3c-57,20-82.6,47.4-82.6,65.7c0,19,27.5,48.9,87.8,69.7c44.3,15.2,104.1,23.3,172.9,23.3
		c64.5,0,124.7-8.2,169.5-23.2c62.6-20.9,91.2-50.9,91.2-69.8c0-9.7-7.3-21.1-20.6-32.3c-15.4-12.9-37.6-24.6-64.4-33.9
		C412.7,171.5,350.3,162.4,285,162.4z" />
	<path d="M386,314.3c-35.7,61.9-74.4,111.8-111.7,144.2c-24.2,21.1-49.1,36.4-72,44.4c-24.3,8.5-45.2,8.3-60.6-0.6
		c-29.4-16.9-39.6-65.6-27.5-130.1c9.9-52.9,34.5-115,69.1-175c34-58.8,74.9-110.5,115.3-145.5c23.6-20.4,47.5-35.4,69.2-43.2
		c23.5-8.5,43.9-8.5,58.9,0.2c30.5,17.6,40.8,71.3,26.7,140C443.4,197.4,419.5,256.3,386,314.3z M204.5,209.6
		c-32.8,56.8-57,117.8-66.3,167.4c-11.2,59.4-0.2,95.2,15.6,104.3c16.5,9.5,56.1,0.7,104.2-41.1c35.3-30.7,72.2-78.5,106.6-138.1
		c32.3-55.9,55.2-112.1,64.7-158.4c13.2-64.7,1.5-104.4-14.9-113.9c-8.4-4.8-21.9-4.2-38.2,1.7c-18.9,6.8-40.1,20.3-61.5,38.8
		C276.3,103.6,237.2,153,204.5,209.6z" />
	<path d="M384.8,197.7c35.7,61.9,59.6,120.3,69.1,168.9c6.1,31.5,7,60.8,2.4,84.5c-4.8,25.3-15.5,43.3-30.8,52.2
		c-29.4,16.9-76.6,1.5-126.4-41.2c-40.8-35.1-82.4-87.4-117-147.4c-34-58.8-58.2-120.2-68.3-172.6c-5.9-30.7-6.9-58.9-2.9-81.5
		c4.4-24.7,14.6-42.3,29.6-50.9C171-8,222.6,9.9,275.1,56.5C312.3,89.4,351.3,139.6,384.8,197.7z M203.4,302.4
		c32.8,56.8,73.6,108.3,111.8,141.1c45.9,39.4,82.3,47.8,98.2,38.6c16.5-9.5,28.7-48.3,16.5-110.8c-8.9-46-31.9-101.8-66.3-161.4
		C331.3,154,294.1,106,258.8,74.7c-49.4-43.8-89.6-53.5-106.1-44c-8.4,4.8-14.6,16.9-17.7,33.9c-3.5,19.8-2.5,44.9,2.8,72.7
		C147.4,187.2,170.7,245.8,203.4,302.4z" />
</svg>
